/* XPM */
static char * void_xpm[] = {
"45 30 3 1",
" 	c None",
".	c #005F87",
"+	c #3B3B3B",
"            .....................            ",
"          .........................          ",
"         ............................        ",
"         .............................       ",
"          ..............................     ",
"           ..........   .................    ",
"    +        ..               ............   ",
"   +++                         ............  ",
"  ++++++                         ........... ",
" ++++++++                         .......... ",
" ++++++++         .........        ..........",
"++++++++         ...........        .........",
"++++++++        .............       .........",
"++++++++       ...............      .........",
"+++++++        ...............      .........",
"+++++++        ...............      .........",
"++++++++       ...............      .........",
"++++++++        .............       .........",
"++++++++         ...........        .........",
" ++++++++         .........        ..........",
" +++++++++                         ......... ",
"  +++++++++                         ........ ",
"   +++++++++                         ......  ",
"    ++++++++++                        ....   ",
"     ++++++++++++           ++++             ",
"      +++++++++++++++++++++++++++            ",
"        +++++++++++++++++++++++++++          ",
"          +++++++++++++++++++++++++          ",
"            +++++++++++++++++++++            ",
"                +++++++++++++                "};
