/* XPM */
static char * xmonad_xpm_haskell2_20_xpm[] = {
"36 24 182 2",
"  	c #007687",
". 	c #007484",
"+ 	c #007485",
"@ 	c #017586",
"# 	c #087686",
"$ 	c #0E7585",
"% 	c #0E7586",
"& 	c #0D7586",
"* 	c #077586",
"= 	c #017687",
"- 	c #005F6D",
"; 	c #005C69",
"> 	c #005B69",
", 	c #006371",
"' 	c #087080",
") 	c #28717F",
"! 	c #386D78",
"~ 	c #3A6C77",
"{ 	c #3A6C78",
"] 	c #097686",
"^ 	c #007383",
"/ 	c #004954",
"( 	c #00343C",
"_ 	c #001B20",
": 	c #001419",
"< 	c #001519",
"[ 	c #00343D",
"} 	c #0D5967",
"| 	c #346570",
"1 	c #4C636A",
"2 	c #565E61",
"3 	c #595C5D",
"4 	c #565E60",
"5 	c #3F6A75",
"6 	c #117585",
"7 	c #007586",
"8 	c #006E7E",
"9 	c #005866",
"0 	c #000303",
"a 	c #000E11",
"b 	c #022B32",
"c 	c #125865",
"d 	c #326C79",
"e 	c #516166",
"f 	c #5A5B5C",
"g 	c #5B5B5B",
"h 	c #595D5E",
"i 	c #476770",
"j 	c #277180",
"k 	c #007080",
"l 	c #005E6C",
"m 	c #00313A",
"n 	c #000608",
"o 	c #000000",
"p 	c #00161A",
"q 	c #05505C",
"r 	c #276976",
"s 	c #4B636A",
"t 	c #585E60",
"u 	c #4A656D",
"v 	c #2F6F7D",
"w 	c #167484",
"x 	c #027687",
"y 	c #006A7A",
"z 	c #00404A",
"A 	c #00181D",
"B 	c #000101",
"C 	c #000B0E",
"D 	c #02323A",
"E 	c #164E59",
"F 	c #31626D",
"G 	c #49636B",
"H 	c #575E60",
"I 	c #5A5C5C",
"J 	c #585D5E",
"K 	c #4D646B",
"L 	c #346E7B",
"M 	c #0B7485",
"N 	c #007283",
"O 	c #007181",
"P 	c #007182",
"Q 	c #00191E",
"R 	c #000506",
"S 	c #000203",
"T 	c #00242B",
"U 	c #054A55",
"V 	c #2A5F6B",
"W 	c #44676F",
"X 	c #565F62",
"Y 	c #595C5E",
"Z 	c #426973",
"` 	c #176D7D",
" .	c #035D6B",
"..	c #00535F",
"+.	c #00515E",
"@.	c #005562",
"#.	c #007384",
"$.	c #006473",
"%.	c #004854",
"&.	c #00242A",
"*.	c #000405",
"=.	c #000102",
"-.	c #001D22",
";.	c #045662",
">.	c #2B6D7B",
",.	c #506267",
"'.	c #5B5B5C",
").	c #4D646A",
"!.	c #376670",
"~.	c #1A5561",
"{.	c #013942",
"].	c #001318",
"^.	c #00090C",
"/.	c #00090D",
"(.	c #006575",
"_.	c #003740",
":.	c #001418",
"<.	c #044751",
"[.	c #22606D",
"}.	c #44646C",
"|.	c #546064",
"1.	c #526065",
"2.	c #3D6670",
"3.	c #235A65",
"4.	c #064752",
"5.	c #00444F",
"6.	c #004A55",
"7.	c #006978",
"8.	c #003943",
"9.	c #000507",
"0.	c #012026",
"a.	c #0A424D",
"b.	c #216774",
"c.	c #446871",
"d.	c #5A5C5D",
"e.	c #546063",
"f.	c #3C6872",
"g.	c #0D6D7D",
"h.	c #006F7F",
"i.	c #456871",
"j.	c #217382",
"k.	c #097586",
"l.	c #27707E",
"m.	c #0C6371",
"n.	c #014C58",
"o.	c #004550",
"p.	c #49646C",
"q.	c #0B515E",
"r.	c #002C34",
"s.	c #00080B",
"t.	c #00080C",
"u.	c #4B656C",
"v.	c #585D5F",
"w.	c #3F6973",
"x.	c #106C7B",
"y.	c #005B68",
"z.	c #00515D",
"A.	c #376D79",
"B.	c #336F7B",
"C.	c #526166",
"D.	c #316E7B",
"E.	c #137181",
"F.	c #017181",
"G.	c #257280",
"H.	c #48676F",
"I.	c #4E6369",
"J.	c #366E7A",
"K.	c #1C7483",
"L.	c #057687",
"M.	c #277280",
"N.	c #436872",
"O.	c #555F62",
"P.	c #0F7585",
"Q.	c #067686",
"R.	c #3B6C77",
"S.	c #3F6A74",
"T.	c #127585",
"U.	c #057686",
"V.	c #1A7483",
"W.	c #336E7B",
"X.	c #037687",
"Y.	c #0B7586",
"                                                                        ",
"                                                                        ",
"      . . . . . + @ # $ $ % % & * =                                     ",
"    + - ; ; > ; , ' ) ! ~ { { ! ) ]                                     ",
"    ^ / ( _ : < [ } | 1 2 3 3 4 5 6                                     ",
"    7 8 9 [ : 0 a b c d e f g h i j &                                   ",
"        k l m n o p q r s t g g 2 u v w x                               ",
"        7 y z A B C D E F G H I g J K L M N O O O O O O O O O O P       ",
"          O l z Q R S T U V W X g g Y Z `  ...+.+.+.+.+.+.+.+.+.@.#.    ",
"            . $.%.&.*.=.-.;.>.,.'.g 3 ).!.~.{.].^./././././././.T P     ",
"              + (._.^.B :.<.[.}.|.f g 3 1.2.3.4.5.5.5.5.5.5.5.5.6.^     ",
"              7 7.8./.o 9.0.a.b.c.h g g d.e.f.g.8 8 8 8 8 8 8 8 h.7     ",
"              7 7.8./.o 9.0.a.b.c.h g g g 3 i.j.k.^ 8 8 8 8 8 8 h.7     ",
"              + (._.^.B :.<.[.}.|.f g g g f |.c.l.m.n.o.5.5.5.5.6.^     ",
"            . $.%.&.*.=.-.;.>.,.'.g g g '.g g H p.F q.r.s.t././.T P     ",
"          O l z Q R S T U V W X g g f ,.u.2 g g v.w.x.y.z.z.+.+.@.#.    ",
"        7 y z A B C D E F G H I g J ).A.B.C.f g I u.D.E.F.O O O P       ",
"        k l m n o p q r s t g g 2 u v w G.H.2 g g v.I.J.K.L.            ",
"    7 8 9 [ : 0 a b c d e f g h i j & = % M.N.O.I g 3 C.{ P.=           ",
"    ^ / ( _ : < [ } | 1 2 3 3 4 5 6       Q.j.R.C.3 3 4 S.T.=           ",
"    + - ; ; > ; , ' ) ! ~ { { ! ) ]         U.V.W.R.{ ! ) ]             ",
"      . . . . . + @ # $ $ % % & * =           X.Y.$ % & * =             ",
"                                                                        ",
"                                                                        "};
